HIERARCHY
ROOT reference
{
  OFFSET 0 0 0
  CHANNELS 6 Xposition Yposition Zposition Zrotation Xrotation Yrotation
  JOINT Hips
  {
    OFFSET -6.02958 88.1815 115.914
    CHANNELS 6 Xposition Yposition Zposition Zrotation Xrotation Yrotation
    JOINT Spine
    {
      OFFSET 0 7.76127 0
      CHANNELS 6 Xposition Yposition Zposition Zrotation Xrotation Yrotation
      JOINT Spine1
      {
        OFFSET 0 24.7858 0
        CHANNELS 6 Xposition Yposition Zposition Zrotation Xrotation Yrotation
        JOINT Neck
        {
          OFFSET 0 24.684 2.244
          CHANNELS 6 Xposition Yposition Zposition Zrotation Xrotation Yrotation
          JOINT Head
          {
            OFFSET 0 13.2509 -1.89299
            CHANNELS 6 Xposition Yposition Zposition Zrotation Xrotation Yrotation
            End Site
            {
              OFFSET 0 23.6624 0
            }
          }
        }
        JOINT LeftShoulder
        {
          OFFSET 3.79413 23.4442 -0.177979
          CHANNELS 6 Xposition Yposition Zposition Zrotation Xrotation Yrotation
          JOINT LeftArm
          {
            OFFSET 9.21107 0 0
            CHANNELS 6 Xposition Yposition Zposition Zrotation Xrotation Yrotation
            JOINT LeftForeArm
            {
              OFFSET 34.3528 0 0
              CHANNELS 6 Xposition Yposition Zposition Zrotation Xrotation Yrotation
              JOINT LeftHand
              {
                OFFSET 25.4606 0 0
                CHANNELS 6 Xposition Yposition Zposition Zrotation Xrotation Yrotation
                End Site
                {
                  OFFSET 14.1974 0 0
                }
              }
            }
          }
        }
        JOINT RightShoulder
        {
          OFFSET -3.76739 23.4442 -0.177979
          CHANNELS 6 Xposition Yposition Zposition Zrotation Xrotation Yrotation
          JOINT RightArm
          {
            OFFSET -9.21107 0 0
            CHANNELS 6 Xposition Yposition Zposition Zrotation Xrotation Yrotation
            JOINT RightForeArm
            {
              OFFSET -34.3528 0 0
              CHANNELS 6 Xposition Yposition Zposition Zrotation Xrotation Yrotation
              JOINT RightHand
              {
                OFFSET -25.4606 0 0
                CHANNELS 6 Xposition Yposition Zposition Zrotation Xrotation Yrotation
                End Site
                {
                  OFFSET -14.1974 0 0
                }
              }
            }
          }
        }
      }
    }
    JOINT LeftUpLeg
    {
      OFFSET 9.46496 0 0
      CHANNELS 6 Xposition Yposition Zposition Zrotation Xrotation Yrotation
      JOINT LeftLeg
      {
        OFFSET 0 -36.0737 0
        CHANNELS 6 Xposition Yposition Zposition Zrotation Xrotation Yrotation
        JOINT LeftFoot
        {
          OFFSET 0 -40.8088 0
          CHANNELS 6 Xposition Yposition Zposition Zrotation Xrotation Yrotation
          JOINT LeftToeBase
          {
            OFFSET 0 -6.15222 14.1974
            CHANNELS 6 Xposition Yposition Zposition Zrotation Xrotation Yrotation
            End Site
            {
              OFFSET 0 0 3.78598
            }
          }
        }
      }
    }
    JOINT RightUpLeg
    {
      OFFSET -9.46496 0 0
      CHANNELS 6 Xposition Yposition Zposition Zrotation Xrotation Yrotation
      JOINT RightLeg
      {
        OFFSET 0 -36.0737 0
        CHANNELS 6 Xposition Yposition Zposition Zrotation Xrotation Yrotation
        JOINT RightFoot
        {
          OFFSET 0 -40.8088 0
          CHANNELS 6 Xposition Yposition Zposition Zrotation Xrotation Yrotation
          JOINT RightToeBase
          {
            OFFSET 0 -6.15222 14.1974
            CHANNELS 6 Xposition Yposition Zposition Zrotation Xrotation Yrotation
            End Site
            {
              OFFSET 0 0 3.78598
            }
          }
        }
      }
    }
  }
}
MOTION
Frames:	7
Frame Time:	0.004
0 0 0 0 0 -0 -15.0398 77.1004 -180.363 -6.90205 -3.20628 4.97792 -1.77636e-015 7.76127 2.84217e-014 5.36888 4.70419 -7.43531 0 24.7858 0 -3.69575 7.87758 -6.96002 0 24.684 2.244 2.09379 23.3053 3.67922 0 13.2509 -1.89299 -4.84319 24.7688 4.36221 3.79413 23.4442 -0.177979 -10.2577 19.8566 -3.17316 9.21107 -1.42109e-014 -2.84217e-014 -33.8542 32.3071 -26.5542 34.3528 0 0 21.4853 -40.4649 -79.3938 25.4606 -1.42109e-014 0 21.3135 -23.6334 9.47507 -3.76739 23.4442 -0.177979 9.7068 24.4392 -6.19839 -9.21107 0 2.84217e-014 55.1365 48.6471 -2.46021 -34.3528 0 0 -5.42004 -20.3844 43.8921 -25.4606 -1.42109e-014 0 -13.9173 -17.9398 -3.30588 9.46496 1.42109e-014 0 5.05332 23.5294 5.80804 0 -36.0737 -2.84217e-014 -1.03689 -0.894837 -13.1407 0 -40.8088 0 -4.25199 -12.4477 15.1738 0 -6.15222 14.1974 1.59028e-015 -7.95139e-016 -0 -9.46496 1.42109e-014 0 1.76111 -43.562 10.0769 0 -36.0737 0 33.8839 51.1317 -21.9966 -3.55271e-015 -40.8088 0 -21.189 -15.1076 -29.2371 -7.10543e-015 -6.15222 14.1974 1.59028e-015 0 1.59028e-015 
0 0 0 0 0 -0 -15.0197 77.0088 -179.997 -6.84202 -3.14951 5.05348 0 7.76127 0 5.35827 4.52466 -7.46352 -3.55271e-015 24.7858 0 -3.71971 7.98918 -6.99178 0 24.684 2.244 2.15779 23.3687 3.67571 0 13.2509 -1.89299 -4.87777 24.7186 4.36469 3.79413 23.4442 -0.177979 -10.1268 19.7029 -3.30477 9.21107 0 2.84217e-014 -33.7974 32.1019 -26.6177 34.3528 -2.84217e-014 -1.42109e-014 21.7564 -41.0266 -80.5075 25.4606 0 0 21.0905 -23.7538 9.55831 -3.76739 23.4442 -0.177979 9.6606 23.9234 -6.1294 -9.21107 1.42109e-014 0 55.986 48.7712 -3.7093 -34.3528 1.42109e-014 0 -5.34385 -20.3316 43.8577 -25.4606 0 0 -13.7867 -17.9308 -3.22018 9.46496 0 -2.84217e-014 5.08904 23.7852 5.65803 0 -36.0737 -2.84217e-014 -1.09464 -0.991001 -13.026 0 -40.8088 0 -4.36824 -12.4971 14.9771 0 -6.15222 14.1974 2.78299e-015 -2.38542e-015 -1.59028e-015 -9.46496 1.42109e-014 -2.84217e-014 1.56798 -43.3932 10.2249 0 -36.0737 1.42109e-014 33.2208 50.002 -21.0516 0 -40.8088 2.84217e-014 -21.1101 -14.6829 -29.4187 7.10543e-015 -6.15222 14.1974 1.98785e-016 0 -0 
0 0 0 0 0 -0 -14.9993 76.9427 -179.631 -6.79137 -3.14181 5.14671 3.55271e-015 7.76127 0 5.36277 4.39365 -7.51013 0 24.7858 0 -3.73341 8.09884 -7.03981 -7.10543e-015 24.684 2.244 2.14099 23.39 3.66062 0 13.2509 -1.89299 -4.82076 24.7502 4.34521 3.79413 23.4442 -0.177979 -9.98557 19.6638 -3.38093 9.21107 0 2.84217e-014 -33.6899 31.8032 -26.7786 34.3528 0 -1.42109e-014 21.8781 -41.5104 -81.7156 25.4606 -7.10543e-015 0 21.0567 -23.824 9.79327 -3.76739 23.4442 -0.177979 9.64219 23.9714 -6.17625 -9.21107 1.42109e-014 0 56.163 48.4317 -4.02346 -34.3528 0 -2.84217e-014 -5.15808 -20.0953 43.7986 -25.4606 7.10543e-015 2.84217e-014 -13.7433 -17.7794 -3.10837 9.46496 0 2.84217e-014 5.13226 24.0566 5.63668 0 -36.0737 0 -1.13001 -1.03761 -13.1809 0 -40.8088 0 -5.09309 -12.5129 14.9014 -7.10543e-015 -6.15222 14.1974 0 0 -3.18055e-015 -9.46496 0 0 1.60613 -43.1098 10.1505 -7.10543e-015 -36.0737 0 31.8182 49.08 -20.107 0 -40.8088 0 -20.5442 -14.5388 -29.0424 0 -6.15222 14.1974 -7.95139e-016 -1.59028e-015 -0 
0 0 0 0 0 -0 -14.9628 76.8556 -179.261 -6.68924 -3.02264 5.2446 3.55271e-015 7.76127 0 5.32571 4.17634 -7.54647 3.55271e-015 24.7858 0 -3.75561 8.17256 -7.0837 0 24.684 2.244 2.16869 23.4342 3.66788 0 13.2509 -1.89299 -4.84862 24.7307 4.35695 3.79413 23.4442 -0.177979 -9.85239 19.609 -3.46178 9.21107 2.84217e-014 0 -33.5577 31.5658 -26.9674 34.3528 0 0 22.0483 -42.0758 -82.8924 25.4606 0 -1.42109e-014 21.1224 -23.9336 10.1073 -3.76739 23.4442 -0.177979 9.63783 24.1998 -6.2316 -9.21107 0 0 56.2727 48.2396 -4.23657 -34.3528 1.42109e-014 0 -5.06711 -20.0807 43.7484 -25.4606 7.10543e-015 0 -13.6809 -17.8519 -2.68588 9.46496 1.42109e-014 0 5.08075 24.24 5.54181 7.10543e-015 -36.0737 0 -1.13286 -1.1231 -13.0883 -3.55271e-015 -40.8088 -2.84217e-014 -5.31956 -12.5197 14.7054 0 -6.15222 14.1974 -3.97569e-016 -3.18055e-015 -0 -9.46496 1.42109e-014 0 1.30718 -42.9319 10.187 -7.10543e-015 -36.0737 1.42109e-014 31.0975 47.8933 -18.9603 0 -40.8088 -2.84217e-014 -20.0205 -14.0791 -29.2887 -7.10543e-015 -6.15222 14.1974 7.95139e-016 -3.18055e-015 1.59028e-015 
0 0 0 0 0 -0 -14.9427 76.7793 -178.889 -6.62348 -2.96875 5.3728 0 7.76127 0 5.30457 4.011 -7.59805 3.55271e-015 24.7858 2.84217e-014 -3.74434 8.26322 -7.14154 0 24.684 2.244 2.19549 23.4356 3.65287 0 13.2509 -1.89299 -4.87202 24.8243 4.34944 3.79413 23.4442 -0.177979 -9.70682 19.526 -3.56386 9.21107 1.42109e-014 2.84217e-014 -33.4799 31.2562 -27.1275 34.3528 0 -2.84217e-014 22.1079 -42.5405 -84.081 25.4606 -7.10543e-015 2.84217e-014 20.797 -24.0924 10.0947 -3.76739 23.4442 -0.177979 9.61853 24.2651 -6.31636 -9.21107 1.42109e-014 0 56.4636 48.1739 -4.56292 -34.3528 0 0 -4.97224 -20.051 43.7179 -25.4606 0 0 -13.6322 -17.8657 -2.64247 9.46496 0 2.84217e-014 5.12888 24.4531 5.46288 0 -36.0737 0 -1.18152 -1.13895 -13.2394 0 -40.8088 2.84217e-014 -5.46564 -12.5572 14.7032 0 -6.15222 14.1974 7.95139e-016 -1.59028e-015 6.36111e-015 -9.46496 0 0 1.13551 -42.5954 10.1857 7.10543e-015 -36.0737 0 30.1091 46.6827 -17.8593 -3.55271e-015 -40.8088 2.84217e-014 -19.4206 -13.7995 -29.3749 0 -6.15222 14.1974 -1.19271e-015 0 -0 
0 0 0 0 0 -0 -14.9094 76.695 -178.51 -6.51417 -2.89679 5.49556 -3.55271e-015 7.76127 -2.84217e-014 5.21548 3.94915 -7.61089 -3.55271e-015 24.7858 2.84217e-014 -3.62493 8.14248 -7.17281 0 24.684 2.244 2.12598 23.5664 3.60133 0 13.2509 -1.89299 -4.82111 24.8193 4.28927 3.79413 23.4442 -0.177979 -9.66698 19.5654 -3.70308 9.21107 0 2.84217e-014 -33.3283 31.0805 -27.2927 34.3528 1.42109e-014 0 22.3798 -43.1517 -85.1086 25.4606 0 2.84217e-014 20.7663 -24.2316 10.2945 -3.76739 23.4442 -0.177979 9.50132 24.3111 -6.54507 -9.21107 0 -5.68434e-014 56.8053 48.3294 -5.0128 -34.3528 -1.42109e-014 0 -4.93319 -20.0896 43.7259 -25.4606 7.10543e-015 0 -13.708 -17.9092 -2.71634 9.46496 0 -2.84217e-014 5.11882 24.6626 5.34461 0 -36.0737 -2.84217e-014 -1.24914 -1.19926 -12.9364 -1.77636e-015 -40.8088 0 -5.64109 -12.5188 14.3385 0 -6.15222 14.1974 7.95139e-016 0 -0 -9.46496 0 -2.84217e-014 1.13332 -42.3408 9.99399 7.10543e-015 -36.0737 0 28.5694 45.7453 -17.1222 0 -40.8088 -2.84217e-014 -18.5044 -13.7027 -28.6929 0 -6.15222 14.1974 1.59028e-015 -1.59028e-015 -0 
0 0 0 0 0 -0 -14.8875 76.6207 -178.156 -6.44336 -2.77041 5.61372 -3.55271e-015 7.76127 0 5.1865 3.71853 -7.6574 0 24.7858 -2.84217e-014 -3.6138 8.24513 -7.22832 0 24.684 2.244 2.07517 23.5683 3.58768 0 13.2509 -1.89299 -4.7847 24.8355 4.26932 3.79413 23.4442 -0.177979 -9.57945 19.4454 -3.77128 9.21107 1.42109e-014 2.84217e-014 -33.2254 30.844 -27.4159 34.3528 -2.84217e-014 0 22.4101 -43.6194 -86.2759 25.4606 0 0 20.7388 -24.3415 10.5672 -3.76739 23.4442 -0.177979 9.43716 24.0768 -6.5297 -9.21107 1.42109e-014 2.84217e-014 57.3661 48.4311 -5.7981 -34.3528 1.42109e-014 0 -4.87227 -20.1277 43.8064 -25.4606 2.13163e-014 0 -14.0549 -17.9276 -2.98795 9.46496 -1.42109e-014 0 5.14983 24.7757 5.25802 0 -36.0737 -2.84217e-014 -1.31031 -1.22604 -12.7137 3.55271e-015 -40.8088 -2.84217e-014 -5.89187 -12.4782 13.9936 -7.10543e-015 -6.15222 14.1974 1.98785e-015 -1.59028e-015 -3.18055e-015 -9.46496 -1.42109e-014 0 0.965799 -42.1087 10.0332 0 -36.0737 0 27.7601 44.5527 -16.3972 0 -40.8088 2.84217e-014 -17.8108 -13.3933 -28.6077 7.10543e-015 -6.15222 14.1974 7.95139e-016 0 -0 
